STARTFONT 2.1
COMMENT This font image translated from Metafont
COMMENT Input file was ``bnsl10''
COMMENT DPI was ``210'', usermag ``1000'', blackness ``3''
COMMENT shrink was 1
FONT -*-bengali2-medium-o-*-*-*-210-*-*-*-*-iso10646-1
SIZE 10 210 210
FONTBOUNDINGBOX 56 37 -16 -9
STARTPROPERTIES 5
FONT_ASCENT 28
FONT_DESCENT 4
COPYRIGHT "GNU General Public License"
DEFAULT_CHAR 319
_XMBDFED_INFO "Edited with xmbdfed 4.5."
ENDPROPERTIES
CHARS 249
STARTCHAR C257
ENCODING 257
SWIDTH 514 0
DWIDTH 15 0
BBX 16 28 4 -2
BITMAP
8000
8000
8000
7FF0
000C
0002
0002
0002
FFFF
0400
0400
1FE0
3E10
3C10
0010
0030
0060
00C0
8380
FE00
2000
1800
0400
0200
0100
0080
0040
0020
ENDCHAR
STARTCHAR C258
ENCODING 258
SWIDTH 582 0
DWIDTH 17 0
BBX 19 26 3 0
BITMAP
100000
100000
100000
0FFE00
000180
000040
000040
000040
7FFFE0
100000
080000
1E0000
390000
388700
308E00
00BE00
01E400
038C00
070800
1C0800
301800
E01000
001000
001000
001000
001000
ENDCHAR
STARTCHAR C259
ENCODING 259
SWIDTH 582 0
DWIDTH 17 0
BBX 19 25 3 1
BITMAP
400000
800000
400000
3FF800
000600
000100
000080
000080
7FFFE0
004000
204000
204000
408000
408400
408E00
40BA00
41F200
40C200
400200
200200
200400
100C00
183800
0FF000
07C000
ENDCHAR
STARTCHAR C260
ENCODING 260
SWIDTH 651 0
DWIDTH 19 0
BBX 20 25 4 1
BITMAP
200000
200000
200000
1FFC00
000380
000040
000020
000020
FFFFF0
002000
402000
482000
504000
904200
904700
905D00
50F900
506100
500100
700100
300200
380600
181C00
0FF800
07E000
ENDCHAR
STARTCHAR C261
ENCODING 261
SWIDTH 720 0
DWIDTH 21 0
BBX 18 18 5 0
BITMAP
30C840
71E840
673840
7EF040
3B9080
061080
1C1080
302080
E02100
C02100
302100
086100
045200
024A00
024600
018600
018000
008000
ENDCHAR
STARTCHAR C262
ENCODING 262
SWIDTH 651 0
DWIDTH 19 0
BBX 17 18 4 0
BITMAP
000F00
003880
006080
00C080
018180
010100
63E100
43E300
83E200
83C200
800200
800600
C00400
7FC400
3FF400
003C00
000800
000800
ENDCHAR
STARTCHAR C263
ENCODING 263
SWIDTH 754 0
DWIDTH 22 0
BBX 21 27 4 0
BITMAP
003000
007000
004000
004000
004000
007000
003FC0
000FF0
000038
001E08
007108
00C108
018110
010330
0302E0
43C3C0
43C300
83C600
838400
800400
800400
800C00
FFE800
7FF800
001800
000800
001800
ENDCHAR
STARTCHAR C264
ENCODING 264
SWIDTH 582 0
DWIDTH 17 0
BBX 15 17 4 1
BITMAP
00FC
03FE
4702
4E02
CE06
8C0C
8078
80F0
80F0
80F8
8008
4008
4018
2030
30E0
1FC0
0F00
ENDCHAR
STARTCHAR C270
ENCODING 270
SWIDTH 308 0
DWIDTH 9 0
BBX 13 18 1 0
BITMAP
1FF8
00C0
0180
0300
0300
0300
0600
0600
0600
0600
0600
0C00
0C00
0C00
1800
1800
3000
E000
ENDCHAR
STARTCHAR C271
ENCODING 271
SWIDTH 0 0
DWIDTH 0 0
BBX 14 7 -16 -3
BITMAP
8000
8000
8004
8004
FFF4
7FFC
0008
ENDCHAR
STARTCHAR C272
ENCODING 272
SWIDTH 582 0
DWIDTH 17 0
BBX 18 20 4 -2
BITMAP
FFFFC0
030E00
070600
078600
0D8400
D9CC00
F0F800
03F000
070800
0E0800
0C0800
001800
003000
10E000
0F8000
020000
018000
004000
002000
001000
ENDCHAR
STARTCHAR C273
ENCODING 273
SWIDTH 617 0
DWIDTH 18 0
BBX 19 19 4 -1
BITMAP
FFFFE0
018380
038180
03C180
06C180
06E100
CC7300
F83E00
000400
000400
0F0400
7FC400
F8E800
F82800
F81800
701800
001000
001000
001000
ENDCHAR
STARTCHAR C274
ENCODING 274
SWIDTH 1131 0
DWIDTH 33 0
BBX 34 18 4 0
BITMAP
FFFE0FC3C0
0187382200
0383E01200
0383E07200
07C210CC00
6CE6138400
787C160400
00003C0400
0000700800
0000600800
0000000800
0000000800
0000001000
0000001000
0000001000
0000001000
0000002000
0000002000
ENDCHAR
STARTCHAR C275
ENCODING 275
SWIDTH 1131 0
DWIDTH 33 0
BBX 34 18 4 0
BITMAP
FFFE0FC3C0
0187382200
0383E01200
0383E07200
07C210CC00
6CE6138400
787C160400
00003C0400
0000700800
0000600800
00007C0800
000082E800
0001011000
0001611000
0001E01000
0000C01000
0000002000
0000002000
ENDCHAR
STARTCHAR C276
ENCODING 276
SWIDTH 1028 0
DWIDTH 30 0
BBX 31 18 4 0
BITMAP
FFFFFFFE
01870000
03830000
03C30180
06C203C0
6CE70260
787C8220
00008220
00018420
000304C0
000605C0
001C0580
001C0800
00030800
00008800
00004800
00003000
00001000
ENDCHAR
STARTCHAR C277
ENCODING 277
SWIDTH 617 0
DWIDTH 18 0
BBX 19 18 4 0
BITMAP
FFFFE0
018380
038180
03C180
06C180
06E100
CC7300
F83E00
001C00
00F400
038400
0E0400
1E0800
038800
00C800
006800
003000
003000
ENDCHAR
STARTCHAR C278
ENCODING 278
SWIDTH 754 0
DWIDTH 22 0
BBX 23 19 4 -1
BITMAP
FFFFFE
018390
038190
03C190
06C1A0
06E120
CC7320
F83E20
000440
000840
003840
007C40
007E80
007A80
007180
000180
000100
000100
000100
ENDCHAR
STARTCHAR C279
ENCODING 279
SWIDTH 617 0
DWIDTH 18 0
BBX 19 18 4 0
BITMAP
FFFFE0
018380
038180
03C180
06C180
06E100
CC7300
F83E00
000400
000400
3C0400
42E400
811800
B10800
F00800
600800
001000
001000
ENDCHAR
STARTCHAR C280
ENCODING 280
SWIDTH 514 0
DWIDTH 15 0
BBX 17 20 3 -2
BITMAP
7FFF80
020000
03F000
0F0800
1F0800
1E0800
001800
003000
20E000
1F8000
060000
010000
008000
1E6000
715000
C0D000
E08000
E08000
008000
008000
ENDCHAR
STARTCHAR C281
ENCODING 281
SWIDTH 754 0
DWIDTH 22 0
BBX 23 18 4 0
BITMAP
FFFFFE
000400
000400
003800
00C9C0
030BE0
0C0BA0
301020
601040
401080
301F00
082000
042000
022000
012000
38C000
38C000
004000
ENDCHAR
STARTCHAR C282
ENCODING 282
SWIDTH 685 0
DWIDTH 20 0
BBX 21 18 4 0
BITMAP
FFFFF8
000400
000800
003800
00C800
030F00
0C1C80
301080
601180
401100
302100
082300
042200
022200
014200
38C600
38C400
004000
ENDCHAR
STARTCHAR C283
ENCODING 283
SWIDTH 548 0
DWIDTH 16 0
BBX 17 20 4 -2
BITMAP
FFFF80
000000
000000
1E3000
396800
79C800
788800
701800
001000
003000
006000
81C000
7F0000
100000
0C0000
020000
018000
004000
002000
001000
ENDCHAR
STARTCHAR C284
ENCODING 284
SWIDTH 651 0
DWIDTH 19 0
BBX 20 20 4 -2
BITMAP
FFFFF0
040000
040000
1FE000
3C1000
381E00
001900
003100
006300
00C200
838200
FE0600
200400
180400
040400
020C00
010800
008800
004000
004000
ENDCHAR
STARTCHAR C285
ENCODING 285
SWIDTH 685 0
DWIDTH 20 0
BBX 15 18 5 0
BITMAP
03E4
0FF6
9C1E
9E0A
9F0A
8102
8306
863C
8C7C
887C
807C
8004
4004
4004
200C
3038
1FF0
0FC0
ENDCHAR
STARTCHAR C286
ENCODING 286
SWIDTH 720 0
DWIDTH 21 0
BBX 16 18 5 0
BITMAP
7872
7DFB
878F
8F8D
9FC5
BFC1
BBC3
801E
803E
803C
803A
4002
4002
2002
3006
1C1C
0FF8
03E0
ENDCHAR
STARTCHAR C287
ENCODING 287
SWIDTH 651 0
DWIDTH 19 0
BBX 20 18 4 0
BITMAP
FFFFF0
040000
040000
1F8000
3C4E00
383100
002700
002F00
006F00
00CE00
438000
3E0000
080000
040000
020000
010000
008000
008000
ENDCHAR
STARTCHAR C288
ENCODING 288
SWIDTH 411 0
DWIDTH 12 0
BBX 0 0 0 0
BITMAP
ENDCHAR
STARTCHAR C289
ENCODING 289
SWIDTH 582 0
DWIDTH 17 0
BBX 9 23 10 -3
BITMAP
0180
0380
0380
0300
0300
0700
0700
0600
0600
0E00
0C00
0C00
0C00
0C00
1800
1800
1000
0000
0000
0000
7000
F000
E000
ENDCHAR
STARTCHAR C290
ENCODING 290
SWIDTH 445 0
DWIDTH 13 0
BBX 11 11 6 13
BITMAP
39C0
7BE0
7BE0
7BE0
79C0
18C0
1080
3180
6300
C600
8400
ENDCHAR
STARTCHAR C291
ENCODING 291
SWIDTH 548 0
DWIDTH 16 0
BBX 14 22 3 -4
BITMAP
0044
00CC
0088
0198
0110
0110
0330
0220
7FFC
0440
0CC0
0880
1980
FFF8
1100
3300
2200
6600
4400
CC00
8800
8800
ENDCHAR
STARTCHAR C292
ENCODING 292
SWIDTH 651 0
DWIDTH 19 0
BBX 18 26 2 -2
BITMAP
000200
000200
000600
000C00
000800
001800
001000
003000
002000
006000
00C000
008000
018000
010000
031FC0
060000
040000
0C0000
080000
180000
100000
300000
600000
400000
C00000
800000
ENDCHAR
STARTCHAR C293
ENCODING 293
SWIDTH 685 0
DWIDTH 20 0
BBX 21 26 2 -2
BITMAP
00C008
016018
023070
022FA0
042060
0420C0
082180
084300
084200
088600
088C00
091800
061000
003000
006380
00C440
018840
011040
031040
061040
0C2080
182080
102080
302100
602200
C01C00
ENDCHAR
STARTCHAR C294
ENCODING 294
SWIDTH 480 0
DWIDTH 14 0
BBX 14 20 5 -2
BITMAP
3F3C
78A0
70A0
00A0
01A0
8740
7C40
1040
0840
0480
0280
0180
0780
3D00
E100
C100
7100
1A00
0E00
0600
ENDCHAR
STARTCHAR C295
ENCODING 295
SWIDTH 308 0
DWIDTH 9 0
BBX 5 11 7 13
BITMAP
38
78
78
78
78
18
10
30
60
C0
80
ENDCHAR
STARTCHAR C296
ENCODING 296
SWIDTH 274 0
DWIDTH 8 0
BBX 10 29 3 -6
BITMAP
0040
0080
0100
0300
0600
0600
0C00
0C00
1800
1800
3000
3000
3000
6000
6000
6000
E000
C000
C000
C000
C000
C000
C000
C000
C000
4000
4000
6000
2000
ENDCHAR
STARTCHAR C297
ENCODING 297
SWIDTH 274 0
DWIDTH 8 0
BBX 10 29 -1 -6
BITMAP
0100
0080
0080
0080
00C0
00C0
00C0
00C0
00C0
00C0
00C0
00C0
01C0
01C0
0180
0180
0180
0380
0300
0300
0600
0600
0C00
0C00
1800
3000
2000
4000
8000
ENDCHAR
STARTCHAR C298
ENCODING 298
SWIDTH 480 0
DWIDTH 14 0
BBX 12 15 5 9
BITMAP
0100
0100
0100
2310
3270
1AC0
0F80
0600
1F00
3580
E4C0
8C40
0C00
0800
0800
ENDCHAR
STARTCHAR C299
ENCODING 299
SWIDTH 685 0
DWIDTH 20 0
BBX 18 18 3 0
BITMAP
001000
001000
003000
002000
002000
002000
006000
004000
004000
FFFFC0
00C000
008000
008000
008000
018000
010000
010000
010000
ENDCHAR
STARTCHAR C300
ENCODING 300
SWIDTH 342 0
DWIDTH 10 0
BBX 6 10 3 -6
BITMAP
38
78
7C
7C
08
18
10
30
60
C0
ENDCHAR
STARTCHAR C301
ENCODING 301
SWIDTH 342 0
DWIDTH 10 0
BBX 10 2 2 7
BITMAP
7FC0
FF80
ENDCHAR
STARTCHAR C302
ENCODING 302
SWIDTH 514 0
DWIDTH 15 0
BBX 5 18 12 0
BITMAP
08
08
18
10
10
10
30
20
20
20
60
40
40
40
C0
80
80
80
ENDCHAR
STARTCHAR C303
ENCODING 303
SWIDTH 308 0
DWIDTH 9 0
BBX 13 22 0 -4
BITMAP
0008
0018
0030
0020
0060
0040
00C0
0080
0180
0300
0200
0600
0400
0C00
0800
1800
3000
2000
6000
4000
C000
8000
ENDCHAR
STARTCHAR C304
ENCODING 304
SWIDTH 548 0
DWIDTH 16 0
BBX 14 14 3 2
BITMAP
03F0
0FF8
1C08
3004
6004
4004
C004
800C
8008
8018
8030
40E0
7FC0
3F00
ENDCHAR
STARTCHAR C305
ENCODING 305
SWIDTH 548 0
DWIDTH 16 0
BBX 9 17 6 1
BITMAP
6000
E000
8000
8000
C000
7000
3C00
0E00
0300
0100
0080
0080
0080
7D80
FF00
FE00
F800
ENDCHAR
STARTCHAR C306
ENCODING 306
SWIDTH 548 0
DWIDTH 16 0
BBX 12 19 4 -1
BITMAP
0800
1800
1800
0C00
0300
00E0
0030
0030
0030
8060
C0C0
7F00
3800
0C00
0600
0300
0180
00C0
0040
ENDCHAR
STARTCHAR C307
ENCODING 307
SWIDTH 548 0
DWIDTH 16 0
BBX 13 14 4 1
BITMAP
4000
8000
83E0
87F0
87D0
8788
8008
8008
4008
4010
2030
30E0
1FC0
0F00
ENDCHAR
STARTCHAR C308
ENCODING 308
SWIDTH 548 0
DWIDTH 16 0
BBX 14 18 3 0
BITMAP
03F0
0C18
100C
2004
2004
2004
3008
1830
0FC0
0FC0
3060
4030
8010
8010
8010
C020
60C0
3F00
ENDCHAR
STARTCHAR C309
ENCODING 309
SWIDTH 548 0
DWIDTH 16 0
BBX 15 18 3 0
BITMAP
00C0
01C0
0340
0640
0C30
180E
301C
2030
6060
40C0
C080
8180
8100
8100
8100
4100
3080
0FC0
ENDCHAR
STARTCHAR C310
ENCODING 310
SWIDTH 548 0
DWIDTH 16 0
BBX 13 16 4 1
BITMAP
0400
0600
4200
8200
8200
8218
8278
83E8
8388
8008
8008
4010
4030
60E0
3FC0
1F00
ENDCHAR
STARTCHAR C311
ENCODING 311
SWIDTH 548 0
DWIDTH 16 0
BBX 11 18 5 0
BITMAP
0780
1C40
3020
6020
C020
8020
8020
7FE0
0040
0040
0040
00C0
0080
0080
0080
0080
0080
0080
ENDCHAR
STARTCHAR C312
ENCODING 312
SWIDTH 548 0
DWIDTH 16 0
BBX 15 17 3 1
BITMAP
3000
1000
1000
1000
1000
2000
2006
3FBC
2060
4040
4040
4080
4080
8100
8200
8C00
7000
ENDCHAR
STARTCHAR C313
ENCODING 313
SWIDTH 548 0
DWIDTH 16 0
BBX 13 17 3 0
BITMAP
1000
1800
0800
0C00
0600
0300
01C0
0060
0030
0018
0008
3E08
4308
E110
E110
E120
C1C0
ENDCHAR
STARTCHAR C314
ENCODING 314
SWIDTH 411 0
DWIDTH 12 0
BBX 7 14 6 2
BITMAP
0E
1E
1E
1E
1C
00
00
00
00
00
78
F8
F8
F0
ENDCHAR
STARTCHAR C315
ENCODING 315
SWIDTH 342 0
DWIDTH 10 0
BBX 7 16 3 -6
BITMAP
1E
3E
3E
3C
00
00
38
78
7C
7C
08
18
10
30
60
C0
ENDCHAR
STARTCHAR C316
ENCODING 316
SWIDTH 754 0
DWIDTH 22 0
BBX 13 18 11 0
BITMAP
0808
0808
0818
0810
1810
1010
1030
1020
3020
2020
2060
2040
6040
4040
40C0
4080
C080
8080
ENDCHAR
STARTCHAR C317
ENCODING 317
SWIDTH 685 0
DWIDTH 20 0
BBX 18 8 3 4
BITMAP
7FFFC0
000000
000000
000000
000000
000000
000000
FFFF80
ENDCHAR
STARTCHAR C318
ENCODING 318
SWIDTH 514 0
DWIDTH 15 0
BBX 16 20 4 -2
BITMAP
FFFF
0400
07E0
1E10
3E10
3C10
0030
0060
41C0
3F00
0C00
0200
0100
00C0
07A0
3CA0
7100
1900
0F00
0300
ENDCHAR
STARTCHAR C319
ENCODING 319
SWIDTH 788 0
DWIDTH 23 0
BBX 11 22 14 -2
BITMAP
0F80
3840
7820
7820
7820
7060
00C0
0180
0300
0600
0C00
0800
1800
1000
1000
1000
0000
0000
7000
F000
F000
E000
ENDCHAR
STARTCHAR C320
ENCODING 320
SWIDTH 651 0
DWIDTH 19 0
BBX 20 20 4 -2
BITMAP
FFFFF0
004000
004000
3C4000
7E8000
F28000
F18F80
E1B900
016100
01C200
010200
000600
003C00
00E400
038400
00C400
006800
003800
001800
001800
ENDCHAR
STARTCHAR C321
ENCODING 321
SWIDTH 308 0
DWIDTH 9 0
BBX 10 18 4 0
BITMAP
CFC0
2800
2800
1800
1800
1000
1000
1000
3000
2000
2000
6000
6000
4000
4000
C000
C000
8000
ENDCHAR
STARTCHAR C322
ENCODING 322
SWIDTH 514 0
DWIDTH 15 0
BBX 9 18 5 0
BITMAP
0780
1880
3080
5880
4F00
8000
8000
8000
8000
C000
6000
3800
0E00
0300
0180
0080
0080
0080
ENDCHAR
STARTCHAR C323
ENCODING 323
SWIDTH 548 0
DWIDTH 16 0
BBX 17 20 4 -2
BITMAP
FFFF80
200000
200000
700000
4E0000
41E000
431000
C61000
9C1000
F03000
006000
03C000
FE0000
180000
060000
010000
008000
004000
002000
001000
ENDCHAR
STARTCHAR C324
ENCODING 324
SWIDTH 582 0
DWIDTH 17 0
BBX 18 17 4 1
BITMAP
FFFFC0
008000
408000
408000
810000
810800
811C00
817400
83E400
818400
800400
400400
400800
201800
307000
1FE000
0F8000
ENDCHAR
STARTCHAR C325
ENCODING 325
SWIDTH 308 0
DWIDTH 9 0
BBX 11 27 3 -1
BITMAP
8000
8000
8000
7C00
0300
0080
0040
0040
7FE0
0080
0100
0200
0400
0800
1000
1000
2000
2000
2000
4000
4000
4000
4000
4000
4600
2E00
1C00
ENDCHAR
STARTCHAR C326
ENCODING 326
SWIDTH 548 0
DWIDTH 16 0
BBX 17 18 4 0
BITMAP
FFFF80
600400
180400
040400
020800
030800
068800
1C4800
303000
601000
E01000
181000
042000
022000
012000
00A000
00C000
004000
ENDCHAR
STARTCHAR C327
ENCODING 327
SWIDTH 548 0
DWIDTH 16 0
BBX 17 18 4 0
BITMAP
FFFF80
300400
600400
400400
400800
410800
3F0800
060800
1C1000
301000
601000
701000
0C2000
022000
012000
00A000
004000
004000
ENDCHAR
STARTCHAR C328
ENCODING 328
SWIDTH 342 0
DWIDTH 10 0
BBX 9 16 3 2
BITMAP
0F00
1880
1080
1080
1180
0F00
0000
0000
0000
0000
7800
C400
8400
8400
8C00
7800
ENDCHAR
STARTCHAR C329
ENCODING 329
SWIDTH 240 0
DWIDTH 7 0
BBX 19 26 -7 0
BITMAP
1FE000
601800
800400
800200
800100
7F8100
004100
002100
002FE0
000100
000100
000200
000200
000200
000200
000400
000400
000400
000400
000800
000800
000800
000800
001000
001000
001000
ENDCHAR
STARTCHAR C330
ENCODING 330
SWIDTH 685 0
DWIDTH 20 0
BBX 21 18 4 0
BITMAP
FFF878
000840
000840
007840
019080
021080
0C1080
101080
602100
402100
302100
083100
044A00
024600
014600
014600
008000
008000
ENDCHAR
STARTCHAR C331
ENCODING 331
SWIDTH 617 0
DWIDTH 18 0
BBX 19 20 4 -1
BITMAP
000100
00C1E0
01E100
773100
FE1300
F81200
F03200
006200
03C600
1F0400
3C0400
1E0400
070C00
018800
00C800
004800
003800
003000
001000
001000
ENDCHAR
STARTCHAR C332
ENCODING 332
SWIDTH 754 0
DWIDTH 22 0
BBX 23 18 4 0
BITMAP
FFFFFE
100100
100200
7C0200
FB03E0
F9FE20
F08420
008460
008440
018440
0F08C0
1FC8C0
1E2880
1C1880
001080
001180
001100
001000
ENDCHAR
STARTCHAR C333
ENCODING 333
SWIDTH 411 0
DWIDTH 12 0
BBX 8 18 5 0
BITMAP
1E
31
21
21
23
1E
00
00
C0
E0
60
30
30
18
08
0C
04
04
ENDCHAR
STARTCHAR C334
ENCODING 334
SWIDTH 514 0
DWIDTH 15 0
BBX 16 19 4 0
BITMAP
0008
0FCF
38E8
6078
4038
C030
C010
CC10
FC30
7820
0020
0020
0060
0040
0040
0040
00C0
0080
0080
ENDCHAR
STARTCHAR C335
ENCODING 335
SWIDTH 240 0
DWIDTH 7 0
BBX 19 26 -7 0
BITMAP
800000
800000
800000
7FE000
001E00
000100
000080
000080
000FE0
000100
000100
000200
000200
000200
000200
000400
000400
000400
000400
000800
000800
000800
000800
001000
001000
001000
ENDCHAR
STARTCHAR C336
ENCODING 336
SWIDTH 788 0
DWIDTH 23 0
BBX 20 18 5 0
BITMAP
3E1800
6111E0
E11210
E11410
C13810
033020
0620C0
1C21C0
7061A0
C06020
305020
084840
04C780
028000
028000
018000
018000
010000
ENDCHAR
STARTCHAR C337
ENCODING 337
SWIDTH 891 0
DWIDTH 26 0
BBX 23 18 4 0
BITMAP
001E00
007100
00C13C
01817E
0103C2
030382
43C302
43C204
83C61C
83843C
800434
800604
800E04
FFEB0C
7FF9F8
0018F0
000800
001800
ENDCHAR
STARTCHAR C338
ENCODING 338
SWIDTH 582 0
DWIDTH 17 0
BBX 18 22 4 -4
BITMAP
FFFFC0
008000
408000
408000
810000
810800
811C00
817400
83E400
818400
800400
400400
400800
201800
307000
1FE000
0F8000
000000
000000
0E0000
1E0000
1C0000
ENDCHAR
STARTCHAR C339
ENCODING 339
SWIDTH 582 0
DWIDTH 17 0
BBX 19 19 3 0
BITMAP
000100
7071E0
79F900
0B8D00
0E0700
3F0200
7F8200
FF8200
FF8600
E30400
000400
000400
000C00
000800
000800
000800
001800
001000
001000
ENDCHAR
STARTCHAR C340
ENCODING 340
SWIDTH 480 0
DWIDTH 14 0
BBX 16 26 3 0
BITMAP
4000
4000
4000
3FF0
000C
0002
0002
0002
7FFF
1800
1000
1000
3000
2000
2070
20F0
60F0
40E0
4060
C040
80C0
8180
8700
9E00
F800
6000
ENDCHAR
STARTCHAR C341
ENCODING 341
SWIDTH 0 0
DWIDTH 0 0
BBX 12 10 -9 -9
BITMAP
1E00
7000
C000
8000
8400
7E00
0100
00C0
0020
0010
ENDCHAR
STARTCHAR C342
ENCODING 342
SWIDTH 480 0
DWIDTH 14 0
BBX 16 22 3 -4
BITMAP
7FFF
1800
1000
1000
3000
2000
2070
20F0
60F0
40E0
4060
C040
80C0
8180
8700
9E00
F800
6000
0000
6000
E000
C000
ENDCHAR
STARTCHAR C343
ENCODING 343
SWIDTH 0 0
DWIDTH 0 0
BBX 6 8 -7 -7
BITMAP
08
38
F0
C0
E0
38
1C
04
ENDCHAR
STARTCHAR C344
ENCODING 344
SWIDTH 480 0
DWIDTH 14 0
BBX 16 18 3 0
BITMAP
7FFF
1800
1000
1000
3000
2000
2070
20F0
60F0
40E0
4060
C040
80C0
8180
8700
9E00
F800
6000
ENDCHAR
STARTCHAR C345
ENCODING 345
SWIDTH 548 0
DWIDTH 16 0
BBX 17 18 4 0
BITMAP
FFFF80
600400
180400
040400
020800
030800
060800
1C0800
301000
601000
E01000
181000
042000
022000
012000
00A000
00C000
004000
ENDCHAR
STARTCHAR C346
ENCODING 346
SWIDTH 514 0
DWIDTH 15 0
BBX 17 27 3 1
BITMAP
004000
00C000
008000
008000
008000
008000
008000
008000
004000
004000
7FFF80
006000
006000
00E000
009000
019000
011000
031000
061000
0C1000
183000
702000
C06000
80C000
818000
470000
3C0000
ENDCHAR
STARTCHAR C347
ENCODING 347
SWIDTH 205 0
DWIDTH 6 0
BBX 12 30 0 -6
BITMAP
01F0
01F0
0180
0380
0380
0300
0300
0700
0700
0600
0600
0E00
0E00
0E00
0C00
1C00
1C00
1C00
1800
3800
3800
3800
3000
7000
7000
7000
6000
E000
F800
F800
ENDCHAR
STARTCHAR C348
ENCODING 348
SWIDTH 445 0
DWIDTH 13 0
BBX 11 11 6 13
BITMAP
0820
1860
30C0
2180
6300
C600
F780
F780
F780
F780
E700
ENDCHAR
STARTCHAR C349
ENCODING 349
SWIDTH 205 0
DWIDTH 6 0
BBX 12 30 -2 -6
BITMAP
01F0
01F0
01F0
0060
0060
0060
00E0
00C0
00C0
00C0
01C0
0180
0180
0180
0380
0300
0300
0300
0700
0600
0600
0600
0E00
0C00
0C00
0C00
1C00
1800
F800
F800
ENDCHAR
STARTCHAR C350
ENCODING 350
SWIDTH 0 0
DWIDTH 0 0
BBX 14 7 0 19
BITMAP
000C
0030
00C0
0300
0E00
3800
E000
ENDCHAR
STARTCHAR C351
ENCODING 351
SWIDTH 0 0
DWIDTH 0 0
BBX 5 5 -3 -8
BITMAP
80
40
20
10
08
ENDCHAR
STARTCHAR C352
ENCODING 352
SWIDTH 308 0
DWIDTH 9 0
BBX 6 11 6 13
BITMAP
04
0C
18
30
60
40
F0
F8
F8
F8
70
ENDCHAR
STARTCHAR C353
ENCODING 353
SWIDTH 788 0
DWIDTH 23 0
BBX 24 19 4 -1
BITMAP
FFFFFF
030008
410008
43F808
47FC10
47C410
47C210
238210
200220
200220
100420
100420
080A40
0C1A40
07F140
03E140
000080
000080
000080
ENDCHAR
STARTCHAR C354
ENCODING 354
SWIDTH 514 0
DWIDTH 15 0
BBX 16 18 4 0
BITMAP
FFFF
0008
0008
0078
01D0
0610
1810
3010
C020
C020
3020
0820
0440
0240
0140
0140
0080
0080
ENDCHAR
STARTCHAR C355
ENCODING 355
SWIDTH 480 0
DWIDTH 14 0
BBX 16 18 3 0
BITMAP
7FFF
1800
1800
1800
3C00
2700
23C0
20F0
6030
4020
4060
C040
80C0
8180
8700
9E00
F800
6000
ENDCHAR
STARTCHAR C356
ENCODING 356
SWIDTH 480 0
DWIDTH 14 0
BBX 15 18 4 0
BITMAP
FFFE
2000
2000
4000
4020
40F0
43E0
8E40
98C0
F080
C180
8100
0100
0300
0200
0200
0200
0200
ENDCHAR
STARTCHAR C357
ENCODING 357
SWIDTH 308 0
DWIDTH 9 0
BBX 10 19 4 -1
BITMAP
FFC0
0100
0200
0400
0800
1000
2000
2000
4000
4000
4000
8000
8000
8000
8000
8000
8C00
5C00
3800
ENDCHAR
STARTCHAR C358
ENCODING 358
SWIDTH 651 0
DWIDTH 19 0
BBX 20 18 4 0
BITMAP
FFFFF0
600000
180000
040C00
021E00
021300
061100
1C2100
302700
602E00
602E00
184000
044000
024000
014000
018000
008000
008000
ENDCHAR
STARTCHAR C359
ENCODING 359
SWIDTH 548 0
DWIDTH 16 0
BBX 17 19 4 0
BITMAP
000400
000780
0FC400
382400
601C00
7C1800
E20800
020800
061800
041000
0C1000
181000
303000
002000
002000
002000
006000
004000
004000
ENDCHAR
STARTCHAR C360
ENCODING 360
SWIDTH 514 0
DWIDTH 15 0
BBX 16 20 4 -2
BITMAP
FFFF
0400
0400
1FE0
3E10
3C10
0010
0030
0060
00C0
8380
FE00
2000
1800
0400
0200
0100
0080
0040
0020
ENDCHAR
STARTCHAR C361
ENCODING 361
SWIDTH 274 0
DWIDTH 8 0
BBX 20 26 4 0
BITMAP
01FE00
070180
0C0040
180020
100020
100010
100000
100000
FF8000
080000
080000
080000
100000
100000
100000
100000
200000
200000
200000
200000
400000
400000
400000
400000
800000
800000
ENDCHAR
STARTCHAR C362
ENCODING 362
SWIDTH 685 0
DWIDTH 20 0
BBX 21 18 4 0
BITMAP
FFFFF8
038000
078000
4C8000
887FC0
900080
900100
90E100
9FE200
8F1200
401200
401400
602400
306400
1FC400
0F8400
000400
000400
ENDCHAR
STARTCHAR C363
ENCODING 363
SWIDTH 685 0
DWIDTH 20 0
BBX 21 18 4 0
BITMAP
FFFFF8
000800
000E00
003B00
01D180
071080
0C1080
301080
602080
C02700
302F00
082E00
044000
024000
014000
014000
008000
008000
ENDCHAR
STARTCHAR C364
ENCODING 364
SWIDTH 617 0
DWIDTH 18 0
BBX 19 18 4 0
BITMAP
FFFFE0
000100
000100
000100
000200
1E3200
214A00
408600
808400
9C0400
BC0400
7C0400
380800
000800
000800
000800
001000
001000
ENDCHAR
STARTCHAR C365
ENCODING 365
SWIDTH 548 0
DWIDTH 16 0
BBX 17 18 4 0
BITMAP
FFFF80
600400
400400
400400
200800
200800
100800
080800
041000
041000
3C1000
7C1000
7F2000
78A000
006000
006000
004000
004000
ENDCHAR
STARTCHAR C366
ENCODING 366
SWIDTH 514 0
DWIDTH 15 0
BBX 16 18 4 0
BITMAP
FFFF
0008
0008
0008
0010
0010
0010
3C10
7E20
F320
F120
E0A0
00C0
00C0
00C0
00C0
0080
0080
ENDCHAR
STARTCHAR C367
ENCODING 367
SWIDTH 651 0
DWIDTH 19 0
BBX 18 26 4 1
BITMAP
004000
004000
008000
008000
008000
00F000
007F00
000F80
0000C0
00FC40
03FE40
470240
4E0280
CE0780
8C0F00
80FE00
81FC00
81F000
81F800
800800
400800
401800
203000
30E000
1FC000
0F0000
ENDCHAR
STARTCHAR C368
ENCODING 368
SWIDTH 582 0
DWIDTH 17 0
BBX 17 19 5 0
BITMAP
000400
000780
1F8400
704400
F02C00
88F800
098800
0F0800
1C1800
381000
201000
001000
003000
002000
002000
002000
006000
004000
004000
ENDCHAR
STARTCHAR C369
ENCODING 369
SWIDTH 617 0
DWIDTH 18 0
BBX 15 19 4 1
BITMAP
001C
003E
1062
08C6
4C9C
47F8
C3E0
8100
830C
821C
8274
83E4
8184
400C
4008
2018
3070
1FE0
0F80
ENDCHAR
STARTCHAR C370
ENCODING 370
SWIDTH 514 0
DWIDTH 15 0
BBX 16 19 4 -1
BITMAP
FFFF
0008
0008
0078
01D0
0610
1810
3010
C020
C020
3020
0820
0440
0240
0140
7140
F080
F080
E000
ENDCHAR
STARTCHAR C371
ENCODING 371
SWIDTH 582 0
DWIDTH 17 0
BBX 18 18 4 0
BITMAP
FFFFC0
3C0200
060200
020200
020400
020400
01E400
031400
061800
0C0800
980800
700800
001000
001000
001000
001000
002000
002000
ENDCHAR
STARTCHAR C372
ENCODING 372
SWIDTH 582 0
DWIDTH 17 0
BBX 18 17 4 1
BITMAP
FFFFC0
000000
000000
800000
81F000
83F800
83C800
83C400
838400
400400
400400
400800
400800
201800
307000
1FE000
0F8000
ENDCHAR
STARTCHAR C373
ENCODING 373
SWIDTH 0 0
DWIDTH 0 0
BBX 11 9 -9 -9
BITMAP
0200
7E00
C400
8E00
7900
0080
0080
0040
0020
ENDCHAR
STARTCHAR C374
ENCODING 374
SWIDTH 617 0
DWIDTH 18 0
BBX 19 17 4 1
BITMAP
FFFFE0
000000
000000
C00000
838000
87C000
87C400
87DE00
87FA00
83E200
800200
400600
400400
200C00
303800
1FF000
0FC000
ENDCHAR
STARTCHAR C375
ENCODING 375
SWIDTH 0 0
DWIDTH 0 0
BBX 10 7 -2 20
BITMAP
0600
8E00
8C40
80C0
4380
7F00
3C00
ENDCHAR
STARTCHAR C376
ENCODING 376
SWIDTH 514 0
DWIDTH 15 0
BBX 16 18 4 0
BITMAP
060F
0E08
1C08
1038
09D0
0710
0C10
3010
6020
C020
3020
0820
0440
0240
0140
0140
0080
0080
ENDCHAR
STARTCHAR C377
ENCODING 377
SWIDTH 548 0
DWIDTH 16 0
BBX 17 19 4 -1
BITMAP
FFFF80
600400
180400
040400
020800
030800
060800
1C0800
301000
601000
E01000
181000
042000
022000
012000
18A000
38C000
384000
300000
ENDCHAR
STARTCHAR C378
ENCODING 378
SWIDTH 582 0
DWIDTH 17 0
BBX 17 19 5 0
BITMAP
000400
3F0780
608400
608400
E08C00
C18800
030800
060800
1C1800
701000
E01000
381000
063000
012000
00A000
002000
006000
004000
004000
ENDCHAR
STARTCHAR C379
ENCODING 379
SWIDTH 582 0
DWIDTH 17 0
BBX 18 1 2 8
BITMAP
FFFFC0
ENDCHAR
STARTCHAR C380
ENCODING 380
SWIDTH 1097 0
DWIDTH 32 0
BBX 33 1 2 8
BITMAP
FFFFFFFF80
ENDCHAR
STARTCHAR C381
ENCODING 381
SWIDTH 514 0
DWIDTH 15 0
BBX 18 20 2 -2
BITMAP
3FFFC0
010000
01F800
078400
0F8400
0F0400
000C00
001800
107000
0FC000
030000
008000
004000
003000
3DD800
423800
B22000
F02000
602000
002000
ENDCHAR
STARTCHAR C382
ENCODING 382
SWIDTH 651 0
DWIDTH 19 0
BBX 17 6 3 6
BITMAP
1E0000
3F0000
7F8080
E1C300
80FE00
003C00
ENDCHAR
STARTCHAR C383
ENCODING 383
SWIDTH 960 0
DWIDTH 28 0
BBX 29 22 4 -4
BITMAP
FFFF7C78
0081C240
00830140
00860140
00878180
010C4080
01184080
01744080
81E44100
8184C100
80058100
80040100
40080200
40180200
60700200
3FE00200
1F800400
00000400
07000000
0F000000
0F000000
0E000000
ENDCHAR
STARTCHAR C384
ENCODING 384
SWIDTH 685 0
DWIDTH 20 0
BBX 21 18 4 0
BITMAP
FFFFF8
000800
003E00
01EB00
071180
1C1180
701380
607F80
23E700
3E2200
182200
302200
1C4E00
065E00
035C00
014000
018000
008000
ENDCHAR
STARTCHAR C385
ENCODING 385
SWIDTH 548 0
DWIDTH 16 0
BBX 17 27 4 -1
BITMAP
200000
100000
0C0000
03E000
001800
000400
000200
000200
FFFF80
004000
01F000
079800
1C8800
708800
70B800
197000
0D6000
070000
030000
060000
0E6000
18E000
30E000
206000
20C000
3F8000
1F0000
ENDCHAR
STARTCHAR C386
ENCODING 386
SWIDTH 754 0
DWIDTH 22 0
BBX 23 17 4 1
BITMAP
FFFFFE
000000
01F800
07FC00
0E0400
5C07C0
DC0C20
98F9E0
81F3E0
81E3E0
81D3C0
401000
401000
403000
20E000
3FC000
1F0000
ENDCHAR
STARTCHAR C387
ENCODING 387
SWIDTH 685 0
DWIDTH 20 0
BBX 21 18 4 0
BITMAP
FFFFF8
000800
003E00
01EB00
071180
1C1080
701080
607380
21E780
372780
1C2700
302000
1C4000
064000
034000
014000
018000
008000
ENDCHAR
STARTCHAR C388
ENCODING 388
SWIDTH 685 0
DWIDTH 20 0
BBX 21 19 4 -1
BITMAP
FFFFF8
004040
01F040
0F5840
384880
608880
389880
0CB880
06B100
030100
030100
03C100
07F200
07FA00
078A00
000600
000400
000400
000400
ENDCHAR
STARTCHAR C389
ENCODING 389
SWIDTH 822 0
DWIDTH 24 0
BBX 26 18 3 0
BITMAP
7FFFFFC0
00000000
001E0000
00710000
00C10000
01817800
21038400
23E23C00
43E27C00
43E27C00
81C67800
80040000
80040000
80040000
40040000
7FFC0000
3FF80000
00080000
ENDCHAR
STARTCHAR C390
ENCODING 390
SWIDTH 651 0
DWIDTH 19 0
BBX 22 18 2 0
BITMAP
3FFFFC
000200
000F80
007AC0
01C440
070440
01C4C0
0065C0
003980
001800
001800
000800
3ED000
413000
B11000
F01000
602000
002000
ENDCHAR
STARTCHAR C391
ENCODING 391
SWIDTH 822 0
DWIDTH 24 0
BBX 25 18 4 0
BITMAP
FFFFFF80
10210000
10420000
3C420000
7B73C000
78BFF000
708C3800
00840800
00847800
0184F800
0F08F000
1FC8E000
1E280000
1C180000
00100000
00100000
00100000
00100000
ENDCHAR
STARTCHAR C392
ENCODING 392
SWIDTH 754 0
DWIDTH 22 0
BBX 23 21 4 -3
BITMAP
FFFFFE
104400
104400
3C4400
7A7F80
793FC0
710860
010820
0309E0
0E13C0
1F9380
1E5000
1C3000
1E2000
3F2000
79A000
78A000
704000
004000
004000
004000
ENDCHAR
STARTCHAR C393
ENCODING 393
SWIDTH 857 0
DWIDTH 25 0
BBX 26 23 4 -5
BITMAP
FFFFFFC0
10620200
10420200
3E440200
797FC400
78BFE400
70843400
00881400
0188F800
0F09E800
1F89C800
1E500800
1C301000
00301000
00781000
01FE1000
03E72000
03E1A000
03C0A000
00006000
00004000
00004000
00004000
ENDCHAR
STARTCHAR C394
ENCODING 394
SWIDTH 651 0
DWIDTH 19 0
BBX 20 18 4 0
BITMAP
FFFFF0
004080
01F080
079880
1C8900
708900
70B900
197100
0D6200
070200
037200
03CA00
430400
4E0400
380400
000400
000800
000800
ENDCHAR
STARTCHAR C395
ENCODING 395
SWIDTH 651 0
DWIDTH 19 0
BBX 18 18 6 0
BITMAP
1F1FC0
709000
C05000
806000
F02000
082000
082000
184000
304000
00F800
03C800
0E8800
389000
309000
1C9000
072000
032000
012000
ENDCHAR
STARTCHAR C396
ENCODING 396
SWIDTH 548 0
DWIDTH 16 0
BBX 17 19 4 -1
BITMAP
07C780
1C2400
301400
601400
7C0800
020800
020800
060800
0C1000
001000
001000
7E1000
FF2000
F1A000
F0A000
E06000
004000
004000
004000
ENDCHAR
STARTCHAR C397
ENCODING 397
SWIDTH 548 0
DWIDTH 16 0
BBX 16 18 5 0
BITMAP
0F8F
3848
6028
C028
F810
0410
0410
0C10
1820
0060
01E0
0720
1C40
1840
0E40
0340
0180
0080
ENDCHAR
STARTCHAR C398
ENCODING 398
SWIDTH 685 0
DWIDTH 20 0
BBX 20 19 5 -1
BITMAP
1F8FF0
704880
C02880
803080
F01100
081100
081100
082100
182200
002200
002200
01E200
03F400
03F400
03EC00
01CC00
000800
000800
000800
ENDCHAR
STARTCHAR C399
ENCODING 399
SWIDTH 582 0
DWIDTH 17 0
BBX 19 18 3 0
BITMAP
03F1E0
0E0900
180500
100500
1E0200
010200
010200
010200
030400
000400
000400
3EE400
411800
F10800
F00800
F00800
E01000
001000
ENDCHAR
STARTCHAR C400
ENCODING 400
SWIDTH 514 0
DWIDTH 15 0
BBX 16 20 4 -2
BITMAP
FFFF
1808
3008
2008
2110
1F10
0E10
1810
7020
7020
0C20
0120
1CC0
7E40
FB40
F940
F080
0080
0080
0080
ENDCHAR
STARTCHAR C401
ENCODING 401
SWIDTH 582 0
DWIDTH 17 0
BBX 18 18 4 0
BITMAP
FFFFC0
002080
1F2080
3F9100
708E00
704000
604000
004000
01F000
0FD800
388800
E08800
E0B800
397800
0D7000
076000
030000
020000
ENDCHAR
STARTCHAR C402
ENCODING 402
SWIDTH 1200 0
DWIDTH 35 0
BBX 34 20 6 0
BITMAP
00C0000000
01E0000000
433FFFFFC0
32E4088000
BFC4108000
8F0F108000
8C1EDDE000
885E2FF800
89FC231C00
8FA0210400
8E20223C00
8060627C00
8043C27800
80C7E27000
4387940000
7F070C0000
3C000C0000
00000C0000
0000080000
0000080000
ENDCHAR
STARTCHAR C403
ENCODING 403
SWIDTH 788 0
DWIDTH 23 0
BBX 24 19 4 0
BITMAP
007000
F0F80F
0DB808
2FF008
23C008
231010
223810
23E810
23CC10
200A20
101A20
187220
0FE420
079840
003040
000C40
000240
000180
000080
ENDCHAR
STARTCHAR C404
ENCODING 404
SWIDTH 582 0
DWIDTH 17 0
BBX 19 18 3 0
BITMAP
7FFFE0
104100
084100
1E2200
391F00
388700
309E00
00B600
01E400
038C00
060800
1C0800
301800
E01000
001000
001000
001000
001000
ENDCHAR
STARTCHAR C405
ENCODING 405
SWIDTH 891 0
DWIDTH 26 0
BBX 26 20 5 0
BITMAP
00E00000
01F00000
231FFFC0
327C0200
9FE80200
8F980200
8C100400
88300400
88FFC400
8FD30400
8F160800
803C0800
40380800
40780800
61C61000
3F811000
1E009000
00005000
00006000
00002000
ENDCHAR
STARTCHAR C406
ENCODING 406
SWIDTH 651 0
DWIDTH 19 0
BBX 19 21 5 -1
BITMAP
00E000
01F000
231FE0
367100
DFE100
8F8100
8C2200
88F200
8FD200
8F1200
401400
403400
20E400
3FC400
1F0800
0FC800
0FE800
0E2800
001000
001000
001000
ENDCHAR
STARTCHAR C407
ENCODING 407
SWIDTH 754 0
DWIDTH 22 0
BBX 23 18 4 0
BITMAP
FFFFFE
202000
202000
306000
7E5000
4FDC00
41CF80
41C3C0
C38040
8680C0
8C8080
B88180
F18300
410600
011C00
013800
01E000
00C000
ENDCHAR
STARTCHAR C408
ENCODING 408
SWIDTH 754 0
DWIDTH 22 0
BBX 23 18 4 0
BITMAP
FFFFFE
202000
202000
306000
7E5800
4FC7C0
41C620
418C20
C39860
86F0C0
8C0380
B80F00
F07800
401000
000800
000400
000200
000200
ENDCHAR
STARTCHAR C409
ENCODING 409
SWIDTH 720 0
DWIDTH 21 0
BBX 22 21 4 -3
BITMAP
FFFFFC
204000
204000
306000
7F5F80
4FC440
418C40
439840
C6F0C0
8C0180
B80700
F07C00
401000
000800
000400
000600
007E00
01C400
006800
003800
001800
ENDCHAR
STARTCHAR C410
ENCODING 410
SWIDTH 651 0
DWIDTH 19 0
BBX 21 18 3 0
BITMAP
7FFFF8
080000
0C0000
0F8000
0BC000
184000
10C000
118000
178E00
1E5100
4C6700
4ECE00
8ECD00
80C100
80A200
E09C00
7F8000
1F0000
ENDCHAR
STARTCHAR C411
ENCODING 411
SWIDTH 960 0
DWIDTH 28 0
BBX 29 18 4 0
BITMAP
FFFFFFF8
06000000
0F000000
48C08000
503F8000
51838000
5FC68000
4E447F00
40480100
20C8C200
3FCFE200
1F472200
00402400
00202400
00304400
001FC800
000F8800
00000800
ENDCHAR
STARTCHAR C412
ENCODING 412
SWIDTH 960 0
DWIDTH 28 0
BBX 29 22 4 -4
BITMAP
FFFFFFF8
06000000
0F000000
48C08000
503F8000
51838000
5FC68000
4E447F80
40480100
20C8C100
3FCFE200
1F472200
00402200
00202400
00304400
001FDC00
000FE400
00008C00
00030800
0000C800
00003800
00000800
ENDCHAR
STARTCHAR C413
ENCODING 413
SWIDTH 1200 0
DWIDTH 35 0
BBX 36 18 4 0
BITMAP
FFFFFFF0F0
0180000880
03C0001080
0640007080
444001D100
483F871100
48011C2100
4861702100
4FE2C02200
4793C02200
4012704200
4014184200
20240C6400
3064066400
1FC4029400
0F88039400
0008018800
0008018800
ENDCHAR
STARTCHAR C414
ENCODING 414
SWIDTH 754 0
DWIDTH 22 0
BBX 23 16 4 2
BITMAP
FFFFFE
03C000
074000
0C4000
0821C0
902620
902820
9070E0
9FE1C0
8F91C0
801040
401040
602880
306700
1FC000
0F8000
ENDCHAR
STARTCHAR C415
ENCODING 415
SWIDTH 720 0
DWIDTH 21 0
BBX 22 21 4 -3
BITMAP
FFFFFC
038000
078000
0C8000
088000
906040
901F80
90C080
9FC100
8F2100
802100
802200
404200
60CE00
3FB400
1F4400
018400
030400
00C400
003400
000800
ENDCHAR
STARTCHAR C417
ENCODING 417
SWIDTH 582 0
DWIDTH 17 0
BBX 16 23 3 -4
BITMAP
000E
0F31
1CC1
3C87
388E
018E
0382
0E44
1838
3080
61E0
4320
4620
3C60
01C0
3F00
F000
0C00
0200
0180
0040
0020
0010
ENDCHAR
STARTCHAR C418
ENCODING 418
SWIDTH 685 0
DWIDTH 20 0
BBX 18 19 4 0
BITMAP
000780
0F1840
1FA040
38C1C0
398380
3B8380
368080
0C4080
882100
901E00
90C200
9FC400
8F2400
802400
402800
604800
3FC800
1F8800
001000
ENDCHAR
STARTCHAR C419
ENCODING 419
SWIDTH 617 0
DWIDTH 18 0
BBX 16 18 4 0
BITMAP
01CE
0331
2627
2E6E
4E4E
4042
40E2
7F9C
3F80
0180
0F90
3920
E120
E120
3920
0EC0
06C0
0640
ENDCHAR
STARTCHAR C420
ENCODING 420
SWIDTH 582 0
DWIDTH 17 0
BBX 19 29 3 -3
BITMAP
100000
080000
060000
01F000
000E00
000100
000080
000080
7FFFE0
040000
040000
040000
0C0000
080000
080E00
081E00
181C00
100C00
100800
101800
303000
20E000
23E000
BF2000
9C2000
404000
61C000
3F8000
1E0000
ENDCHAR
STARTCHAR C421
ENCODING 421
SWIDTH 514 0
DWIDTH 15 0
BBX 16 28 4 -3
BITMAP
4000
3000
0F80
0070
0008
0004
0004
FFFF
1000
3000
2000
2000
2000
6070
40F0
40E0
4060
C0C0
8180
8700
8E00
F880
7380
0E80
1900
0D00
0700
0300
ENDCHAR
STARTCHAR C422
ENCODING 422
SWIDTH 891 0
DWIDTH 26 0
BBX 27 17 4 1
BITMAP
FFFFFFE0
02004000
02004000
02008000
05808000
47C08800
46409800
40413400
40C1E400
21C1C400
3F400400
1E400400
00400800
00201800
00307000
001FE000
000F8000
ENDCHAR
STARTCHAR C423
ENCODING 423
SWIDTH 788 0
DWIDTH 23 0
BBX 23 25 5 0
BITMAP
018000
006000
001F00
0000E0
000010
000008
000008
1F3FFE
30A000
60E000
F04000
F04000
F0C000
E0C0C0
0081C0
0081C0
0181C0
010080
010180
030300
020600
021C00
023800
03E000
01C000
ENDCHAR
STARTCHAR C424
ENCODING 424
SWIDTH 617 0
DWIDTH 18 0
BBX 13 27 5 1
BITMAP
0030
0060
0040
0040
00C0
0080
0080
0080
0080
1F80
30C0
60C0
7040
70E0
6090
0190
0108
0308
0608
0C08
1818
7010
C030
8060
80C0
4380
3E00
ENDCHAR
STARTCHAR C425
ENCODING 425
SWIDTH 617 0
DWIDTH 18 0
BBX 15 18 4 0
BITMAP
078C
0FDE
5C52
5C72
D822
8006
8004
807C
80F8
80F8
80EC
8004
4004
400C
2018
3070
1FE0
0F80
ENDCHAR
STARTCHAR C426
ENCODING 426
SWIDTH 514 0
DWIDTH 15 0
BBX 17 18 3 0
BITMAP
03E780
0E1400
180C00
1C0C00
1C0800
1C0800
180800
000800
001000
0F9000
385000
603000
702000
F02000
E02000
002000
004000
004000
ENDCHAR
STARTCHAR C427
ENCODING 427
SWIDTH 651 0
DWIDTH 19 0
BBX 19 20 5 -1
BITMAP
001000
0F1FE0
389100
606100
706100
F02200
F06200
E04200
004200
004400
004400
03C400
07E400
07A800
079800
071800
001800
001000
001000
001000
ENDCHAR
STARTCHAR C428
ENCODING 428
SWIDTH 582 0
DWIDTH 17 0
BBX 18 17 4 1
BITMAP
FFFFC0
000000
00F800
03FC00
470400
4C0400
5C0C00
58F800
41F000
41E000
41D000
401000
201000
203000
30E000
1FC000
0F0000
ENDCHAR
STARTCHAR C429
ENCODING 429
SWIDTH 548 0
DWIDTH 16 0
BBX 17 20 4 -2
BITMAP
FFFF80
000000
01F000
07F800
4E0800
5C1800
5CF000
59E000
41E000
41F000
401000
203000
30E000
1FC000
0FC000
0FC000
1C8000
068000
038000
018000
ENDCHAR
STARTCHAR C430
ENCODING 430
SWIDTH 617 0
DWIDTH 18 0
BBX 17 19 6 0
BITMAP
000400
788780
C58400
E74400
E64C00
C4C800
018800
030800
0E1800
781000
E01000
381000
063000
012000
00A000
002000
006000
004000
004000
ENDCHAR
STARTCHAR C431
ENCODING 431
SWIDTH 582 0
DWIDTH 17 0
BBX 18 19 4 -1
BITMAP
FFFFC0
007800
40FC00
41F600
21F200
21E200
100200
180400
0E0C00
07F800
01F000
1F1000
3FA000
78A000
786000
706000
004000
004000
004000
ENDCHAR
STARTCHAR C432
ENCODING 432
SWIDTH 582 0
DWIDTH 17 0
BBX 18 18 4 0
BITMAP
FFFFC0
007000
40F800
41F800
21F400
21E400
100400
100400
080800
0C1800
07F000
03F000
03A000
0E2000
032000
01A000
00C000
004000
ENDCHAR
STARTCHAR C433
ENCODING 433
SWIDTH 754 0
DWIDTH 22 0
BBX 23 19 4 -1
BITMAP
FFFFFE
003810
407C10
20F610
20F220
10E220
180220
0C0420
070C40
03F840
00F040
00F040
01FC80
01EE80
01C280
000180
000100
000100
000100
ENDCHAR
STARTCHAR C434
ENCODING 434
SWIDTH 651 0
DWIDTH 19 0
BBX 20 18 4 0
BITMAP
FFFFF0
000000
001E00
007100
00C100
018100
010300
43C200
43C200
83C200
838600
800400
800400
800400
400400
7FFC00
3FF800
000800
ENDCHAR
STARTCHAR C435
ENCODING 435
SWIDTH 788 0
DWIDTH 23 0
BBX 25 18 3 0
BITMAP
7FFFFF80
00000000
001E0000
00710000
00C13800
01817C00
23037400
23E20400
43E20800
43E61000
83C5E000
80040000
80040000
800C0000
60080000
7FF80000
1FF80000
00180000
ENDCHAR
STARTCHAR C436
ENCODING 436
SWIDTH 857 0
DWIDTH 25 0
BBX 26 18 4 0
BITMAP
FFE3E3C0
200E1200
20180A00
20300A00
403C0400
40E20400
43820400
4E820400
99060800
B1040800
E1000800
C2000800
82001000
02001000
02001000
04001000
04002000
04002000
ENDCHAR
STARTCHAR C437
ENCODING 437
SWIDTH 822 0
DWIDTH 24 0
BBX 25 18 4 0
BITMAP
FFFFFF80
20180400
20100400
20300400
40200800
41E00800
439F8800
4E860800
990C1000
B1181000
E1301000
C2701000
820C2000
02022000
04012000
0400A000
0400C000
04004000
ENDCHAR
STARTCHAR C438
ENCODING 438
SWIDTH 582 0
DWIDTH 17 0
BBX 18 18 4 0
BITMAP
FFFFC0
200000
000000
430000
4F0000
5A0C00
F21800
C27800
04D000
059000
071000
062000
042000
002000
002000
004000
004000
004000
ENDCHAR
STARTCHAR C439
ENCODING 439
SWIDTH 617 0
DWIDTH 18 0
BBX 19 18 4 0
BITMAP
FFFFE0
200000
200000
200000
400000
41E000
462000
582000
E0FE00
87C400
1C4400
304400
704800
1C8800
068800
039000
019000
011000
ENDCHAR
STARTCHAR C440
ENCODING 440
SWIDTH 514 0
DWIDTH 15 0
BBX 16 18 4 0
BITMAP
FFFF
2000
2000
2000
4000
41E0
4610
5810
E0E0
83A0
0E20
3820
3840
0E40
0340
01C0
0080
0080
ENDCHAR
STARTCHAR C441
ENCODING 441
SWIDTH 617 0
DWIDTH 18 0
BBX 19 19 4 -1
BITMAP
FFFFE0
100000
200000
21C000
278000
3C8000
710000
610000
010000
8F1000
9F3000
9FE800
9FC800
870800
401800
603000
30E000
1FC000
0F0000
ENDCHAR
STARTCHAR C442
ENCODING 442
SWIDTH 617 0
DWIDTH 18 0
BBX 19 19 4 -1
BITMAP
FFFFE0
100000
200000
21C000
278000
3C8000
710000
610000
010000
0E1800
1E3C00
9EE400
9FCC00
8F0800
C00800
7FF800
3FF000
001000
001000
ENDCHAR
STARTCHAR C443
ENCODING 443
SWIDTH 548 0
DWIDTH 16 0
BBX 17 19 4 -1
BITMAP
FFFF80
200400
400400
400400
41C800
478800
9C8800
B10800
E11000
C11000
021000
021000
1F2000
3FA000
3EA000
3C6000
004000
004000
004000
ENDCHAR
STARTCHAR C444
ENCODING 444
SWIDTH 514 0
DWIDTH 15 0
BBX 18 20 2 -2
BITMAP
01C3C0
03C200
038E00
027A00
01C400
070400
0C0400
070400
018800
00C800
006800
003800
1F1000
7F9000
F0D000
F05000
E02000
002000
002000
002000
ENDCHAR
STARTCHAR C445
ENCODING 445
SWIDTH 925 0
DWIDTH 27 0
BBX 28 18 4 0
BITMAP
0707FFF0
0F040080
160C0080
10380780
09E81D00
07087100
0C09C100
38170100
601C0200
E01C0200
38170200
0C218200
0620C400
03206400
01A03400
00C01400
00C01800
00400800
ENDCHAR
STARTCHAR C446
ENCODING 446
SWIDTH 788 0
DWIDTH 23 0
BBX 24 25 4 0
BITMAP
00C000
003000
000F80
000070
000008
000004
000004
FFFFFF
001000
003000
002000
3E2000
7F6000
F9C060
F8C0E0
F0C0E0
00C0E0
008040
0080C0
008180
018300
010E00
011C00
01F000
00E000
ENDCHAR
STARTCHAR C447
ENCODING 447
SWIDTH 617 0
DWIDTH 18 0
BBX 19 17 4 1
BITMAP
FFFFE0
004000
10C000
7C8000
FE8000
F38800
E19800
017400
81E400
818400
800400
800400
800800
401800
607000
3FE000
1F8000
ENDCHAR
STARTCHAR C448
ENCODING 448
SWIDTH 617 0
DWIDTH 18 0
BBX 19 19 4 -1
BITMAP
FFFFE0
000100
000100
000100
0E0300
1F0200
9FC600
9CFC00
40F800
41F800
41F800
01F400
20E400
200400
100400
180800
0C1800
07F000
03E000
ENDCHAR
STARTCHAR C449
ENCODING 449
SWIDTH 582 0
DWIDTH 17 0
BBX 18 21 4 -3
BITMAP
FFFFC0
000800
000800
381800
7C1000
7E3000
73E000
01F000
07F800
4E0800
5C1800
5C3000
59F000
43C000
43E000
402000
402000
406000
21C000
3F8000
1E0000
ENDCHAR
STARTCHAR C450
ENCODING 450
SWIDTH 582 0
DWIDTH 17 0
BBX 18 21 4 -3
BITMAP
FFFFC0
000200
000200
0E0600
1F0400
9F8C00
9CF800
40F000
41F800
41E800
21E800
21C800
101000
183000
0FE000
07E000
01E000
072000
01C000
00C000
004000
ENDCHAR
STARTCHAR C451
ENCODING 451
SWIDTH 617 0
DWIDTH 18 0
BBX 20 20 3 -2
BITMAP
7FFFF0
000080
000080
070180
0FC100
0FE300
0E3E00
003C00
00E200
018200
030600
43C400
43C400
838400
800400
800C00
400800
7FF800
3FF800
000800
ENDCHAR
STARTCHAR C452
ENCODING 452
SWIDTH 582 0
DWIDTH 17 0
BBX 18 20 4 -2
BITMAP
FFFFC0
000800
000800
381800
7C1000
7E3000
73E000
03F000
070800
0E0800
0C0800
001800
003000
10E000
0F8000
020000
018000
004000
002000
001000
ENDCHAR
STARTCHAR C453
ENCODING 453
SWIDTH 685 0
DWIDTH 20 0
BBX 22 18 3 0
BITMAP
7FFFFC
001000
002000
002000
3E2000
7F20E0
F9C1C0
F8C740
F0CC80
00F880
00E080
00C100
008100
000100
000200
000200
000200
000200
ENDCHAR
STARTCHAR C454
ENCODING 454
SWIDTH 617 0
DWIDTH 18 0
BBX 19 18 4 0
BITMAP
FFFFE0
000800
001000
1F1000
3F9000
78D000
786000
702000
003C00
01E400
074400
1C4400
384800
0C4800
068800
029000
039000
019000
ENDCHAR
STARTCHAR C455
ENCODING 455
SWIDTH 514 0
DWIDTH 15 0
BBX 18 19 2 -1
BITMAP
3FFFC0
000200
000200
000200
0FC400
1FE400
3E3400
3E1400
3C0800
000800
000800
7F0800
FF9000
F8D000
F85000
703000
002000
002000
002000
ENDCHAR
STARTCHAR C456
ENCODING 456
SWIDTH 548 0
DWIDTH 16 0
BBX 17 18 4 0
BITMAP
FFFF80
000400
000400
000400
3F0800
7FC800
F0E800
F02800
E01000
001000
00F000
039000
0E2000
0C2000
072000
01A000
00C000
004000
ENDCHAR
STARTCHAR C457
ENCODING 457
SWIDTH 651 0
DWIDTH 19 0
BBX 20 19 4 -1
BITMAP
FFFFF0
001080
001080
7F1080
FF9100
F8E100
F86100
706100
002200
004200
004200
01E200
03F400
03D400
038C00
000C00
000800
000800
000800
ENDCHAR
STARTCHAR C458
ENCODING 458
SWIDTH 685 0
DWIDTH 20 0
BBX 21 18 4 0
BITMAP
FFFFF8
070040
018040
008040
004080
3C4080
7E4080
E24080
C17900
01E500
018300
430100
460200
3C0200
000200
000200
000400
000400
ENDCHAR
STARTCHAR C459
ENCODING 459
SWIDTH 788 0
DWIDTH 23 0
BBX 23 25 5 0
BITMAP
018000
006000
001F00
0000E0
000010
000008
000008
003FFE
1E2000
712000
C1E000
27C000
2C4000
3840C0
6041C0
00C1C0
0081C0
0080C0
008080
018180
010300
010600
011C00
01F800
00E000
ENDCHAR
STARTCHAR C460
ENCODING 460
SWIDTH 651 0
DWIDTH 19 0
BBX 20 19 4 -1
BITMAP
07E1F0
1C1100
381900
243600
04E200
858200
8F0200
9C0400
407400
40FC00
40F800
00F400
20E400
200400
100400
180800
0C1800
07F000
03E000
ENDCHAR
STARTCHAR C461
ENCODING 461
SWIDTH 582 0
DWIDTH 17 0
BBX 17 19 5 -1
BITMAP
0F8780
384400
602400
F0F400
099800
0F0800
1C0800
380800
201000
001000
001000
7E1000
FF2000
F9A000
F8A000
706000
004000
004000
004000
ENDCHAR
STARTCHAR C462
ENCODING 462
SWIDTH 582 0
DWIDTH 17 0
BBX 19 19 3 -1
BITMAP
03E1E0
0E1100
3C0900
223D00
026200
03C200
070200
0E0200
080400
000400
1F8400
704400
E06800
91D800
131800
1E0800
381000
701000
001000
ENDCHAR
STARTCHAR C463
ENCODING 463
SWIDTH 582 0
DWIDTH 17 0
BBX 18 18 4 0
BITMAP
07C3C0
1C2200
301200
787A00
04CC00
078400
0E0400
1C0400
100800
000800
3C0800
42E800
811000
F11000
F01000
E01000
002000
002000
ENDCHAR
STARTCHAR C464
ENCODING 464
SWIDTH 685 0
DWIDTH 20 0
BBX 21 18 4 0
BITMAP
FFFFF8
070040
018040
008040
3C4080
624080
574080
1C4080
307900
20E500
018300
430100
460200
3C0200
000200
000200
000400
000400
ENDCHAR
STARTCHAR C465
ENCODING 465
SWIDTH 685 0
DWIDTH 20 0
BBX 22 19 3 -1
BITMAP
7FFFFC
060000
010380
0083C0
00C460
018420
030420
060420
0189C0
004BC0
002B80
002800
3C1000
43D000
823000
F01000
F02000
E02000
002000
ENDCHAR
STARTCHAR C466
ENCODING 466
SWIDTH 685 0
DWIDTH 20 0
BBX 21 18 4 0
BITMAP
FFFFF8
008000
078000
1D8000
717FC0
7100C0
9E0180
86E100
83E300
831200
801200
801600
402400
706400
3FC400
0F8400
000400
000400
ENDCHAR
STARTCHAR C467
ENCODING 467
SWIDTH 651 0
DWIDTH 19 0
BBX 20 18 4 0
BITMAP
FFFFF0
004000
008000
078000
1C8000
708380
E10700
391D00
0D3200
07E200
038200
030400
020400
000400
000800
000800
000800
000800
ENDCHAR
STARTCHAR C468
ENCODING 468
SWIDTH 651 0
DWIDTH 19 0
BBX 20 18 4 0
BITMAP
FFFFF0
000800
007800
03C800
0E1000
381000
603E00
60F100
33A200
1E2200
382200
302200
1C4400
064400
034400
014800
018800
008800
ENDCHAR
STARTCHAR C469
ENCODING 469
SWIDTH 548 0
DWIDTH 16 0
BBX 17 18 4 0
BITMAP
FFFF80
000400
003C00
01E400
0F0800
380800
601800
60F800
339000
1E1000
381000
701000
1C2000
062000
032000
01A000
00C000
00C000
ENDCHAR
STARTCHAR C470
ENCODING 470
SWIDTH 548 0
DWIDTH 16 0
BBX 18 18 3 0
BITMAP
7FFFC0
000200
000E00
007A00
03C400
0E0400
1E0400
030400
01C800
006800
003800
3ED800
413000
F11000
F01000
F01000
E02000
002000
ENDCHAR
STARTCHAR C471
ENCODING 471
SWIDTH 685 0
DWIDTH 20 0
BBX 21 19 4 -1
BITMAP
FFFFF8
000000
000000
000000
000300
000780
238C80
47B880
47F180
87C100
800100
800100
800300
400200
7FFA00
3FFE00
000400
000400
000400
ENDCHAR
STARTCHAR C472
ENCODING 472
SWIDTH 582 0
DWIDTH 17 0
BBX 19 20 3 -2
BITMAP
7FFFE0
000000
21C400
23CC00
23DA00
23F200
21E200
100600
181C00
0FF800
07E800
000800
3E0800
41D000
813000
F01000
F01000
E02000
002000
002000
ENDCHAR
STARTCHAR C473
ENCODING 473
SWIDTH 548 0
DWIDTH 16 0
BBX 18 19 3 -1
BITMAP
7FFFC0
040200
040100
040100
3E0100
7F0300
7D8600
78FC00
007800
000800
000800
7F0800
FF9000
F8D000
F85000
703000
002000
002000
002000
ENDCHAR
STARTCHAR C474
ENCODING 474
SWIDTH 994 0
DWIDTH 29 0
BBX 30 18 4 0
BITMAP
FFF0FC3C
081B8220
080E0120
3C1E0720
7E190CC0
7BF13840
71E16040
0003C040
00030080
00060080
00000080
00000080
00000100
00000100
00000100
00000100
00000200
00000200
ENDCHAR
STARTCHAR C475
ENCODING 475
SWIDTH 960 0
DWIDTH 28 0
BBX 29 19 4 -1
BITMAP
FFFFFFF8
08080000
08080000
38080E00
7C080F00
7E180980
73F80880
01E41880
00061080
001C1300
00301700
00603600
00702000
000C2000
00022000
00016000
0000C000
00004000
00004000
ENDCHAR
STARTCHAR C476
ENCODING 476
SWIDTH 548 0
DWIDTH 16 0
BBX 17 18 4 0
BITMAP
FFFF80
080400
080200
080200
7C0200
FE0600
FB0C00
F1F800
00F000
00F000
079000
1C1000
382000
0E2000
032000
01A000
00C000
00C000
ENDCHAR
STARTCHAR C477
ENCODING 477
SWIDTH 651 0
DWIDTH 19 0
BBX 20 19 4 -1
BITMAP
FFFFF0
040100
040100
040100
3E0100
7F0300
7D8600
78FC00
877800
8F1800
8F7400
8FE400
478400
400C00
400800
201800
307000
1FE000
0F8000
ENDCHAR
STARTCHAR C478
ENCODING 478
SWIDTH 617 0
DWIDTH 18 0
BBX 19 19 4 -1
BITMAP
FFFFE0
0C0200
040200
3C0200
7E0600
7B0C00
71F800
00F000
0F1800
5F3C00
9FE400
9FCC00
8F0800
800800
400800
7FF800
3FF000
001000
001000
ENDCHAR
STARTCHAR C479
ENCODING 479
SWIDTH 685 0
DWIDTH 20 0
BBX 21 19 4 -1
BITMAP
FFFFF8
080440
080240
080240
7C0280
FE0680
FB0C80
F1F880
00F100
001100
00F100
01F900
01FA00
01F600
00E600
000600
000400
000400
000400
ENDCHAR
STARTCHAR C480
ENCODING 480
SWIDTH 582 0
DWIDTH 17 0
BBX 19 18 3 0
BITMAP
7FFFE0
060100
020100
020100
1E0100
3F0300
3D8600
38FE00
007C00
000400
3E0400
417400
808800
B08800
F00800
600800
001000
001000
ENDCHAR
STARTCHAR C481
ENCODING 481
SWIDTH 651 0
DWIDTH 19 0
BBX 20 18 4 0
BITMAP
FFFFF0
000800
000800
3C0800
42D000
813000
F11000
F01000
F0FC00
E3A600
0E2200
382200
304E00
1C5E00
065C00
035800
018000
008000
ENDCHAR
STARTCHAR C482
ENCODING 482
SWIDTH 582 0
DWIDTH 17 0
BBX 18 18 4 0
BITMAP
FFFFC0
000200
000200
3E0200
417400
808C00
B88C00
F80400
780800
7F8800
384800
602800
783000
441000
041000
041000
0C2000
182000
ENDCHAR
STARTCHAR C483
ENCODING 483
SWIDTH 582 0
DWIDTH 17 0
BBX 18 21 4 -3
BITMAP
FFFFC0
000400
000400
1F6400
209800
788800
780800
780800
7F9000
1FD800
1C5800
FE3800
822800
867800
8CF000
88F800
40E800
600800
383800
1FF000
07C000
ENDCHAR
STARTCHAR C484
ENCODING 484
SWIDTH 788 0
DWIDTH 23 0
BBX 24 25 4 0
BITMAP
00C000
003000
000F80
000070
000008
000004
000004
FFFFFF
001000
001000
3C3000
43A000
826000
F26060
F060E0
F060E0
E040E0
004060
004040
00C0C0
008180
008300
008E00
00FC00
007000
ENDCHAR
STARTCHAR C485
ENCODING 485
SWIDTH 720 0
DWIDTH 21 0
BBX 22 17 4 1
BITMAP
FFFFFC
001800
1ED000
213000
793000
783100
782300
702E80
103C80
103080
100080
100080
100100
080300
0C0E00
07FC00
03F000
ENDCHAR
STARTCHAR C486
ENCODING 486
SWIDTH 582 0
DWIDTH 17 0
BBX 19 18 3 0
BITMAP
7FFFE0
000100
078100
085900
102600
2C2200
3C0200
1C0200
180400
000400
1F8400
704400
E0E800
119800
170800
1C0800
301000
201000
ENDCHAR
STARTCHAR C487
ENCODING 487
SWIDTH 582 0
DWIDTH 17 0
BBX 18 18 4 0
BITMAP
FFFFC0
000200
000200
000200
000400
3F7400
408C00
B08C00
F00800
F01800
60F800
038800
0E1000
0E1000
039000
00D000
006000
002000
ENDCHAR
STARTCHAR C488
ENCODING 488
SWIDTH 685 0
DWIDTH 20 0
BBX 21 19 4 -1
BITMAP
FFFFF8
000440
000440
3C0840
42E880
811880
B11880
F01080
701100
601100
001100
00F100
01FA00
01FA00
01F600
00E600
000400
000400
000400
ENDCHAR
STARTCHAR C489
ENCODING 489
SWIDTH 617 0
DWIDTH 18 0
BBX 20 18 3 0
BITMAP
7FFFF0
000080
000080
078080
185D00
202300
5C2300
7C0100
3C0200
380200
3E0200
417200
808C00
F08400
F00400
E00400
000800
000800
ENDCHAR
STARTCHAR C490
ENCODING 490
SWIDTH 857 0
DWIDTH 25 0
BBX 26 19 4 0
BITMAP
00040000
F8E7FFC0
1DF40000
0F1C0000
1F8C0000
3F8A0000
7F8B8000
7F99F000
73987800
00100800
00101800
00101000
00303000
00206000
0020C000
00238000
00270000
003C0000
00180000
ENDCHAR
STARTCHAR C491
ENCODING 491
SWIDTH 891 0
DWIDTH 26 0
BBX 27 19 4 0
BITMAP
00020000
F873FFE0
1DFA0000
078A0000
0F860000
1FC58000
3FC47C00
3FCC6200
398CC200
00098600
000F0C00
00003800
0000F000
00078000
00010000
00008000
00004000
00002000
00001000
ENDCHAR
STARTCHAR C492
ENCODING 492
SWIDTH 582 0
DWIDTH 17 0
BBX 18 20 4 -1
BITMAP
000200
F873C0
3DFA00
078A00
1F8600
3FC400
7FC400
7FC400
718C00
000800
000800
000800
3F0800
7F9000
7CD000
7C5000
383000
002000
002000
002000
ENDCHAR
STARTCHAR C493
ENCODING 493
SWIDTH 720 0
DWIDTH 21 0
BBX 22 20 4 -1
BITMAP
000200
F8E3FC
3DF220
0F1E20
1F8C20
3FC440
7FC440
7BCC40
718840
000880
000880
001880
007880
00FD00
00F500
00F300
00E300
000200
000200
000200
ENDCHAR
STARTCHAR C494
ENCODING 494
SWIDTH 582 0
DWIDTH 17 0
BBX 18 19 4 0
BITMAP
000200
F873C0
3DFA00
078A00
1F8600
3FC400
7FC400
7FC400
718C00
000800
000800
3C0800
42E800
811000
F11000
F01000
E01000
002000
002000
ENDCHAR
STARTCHAR C495
ENCODING 495
SWIDTH 582 0
DWIDTH 17 0
BBX 18 19 4 0
BITMAP
000200
F873C0
3DFA00
078A00
1F8600
3FC400
7FC400
7FC400
718C00
000800
000800
007800
03D800
0E1000
0E1000
039000
00D000
006000
002000
ENDCHAR
STARTCHAR C496
ENCODING 496
SWIDTH 582 0
DWIDTH 17 0
BBX 18 18 4 0
BITMAP
FFFFC0
03C000
0E2000
1C2000
346000
62C000
41C000
477000
3C9800
708800
C08800
C0B800
717800
197000
0D0000
050000
060000
020000
ENDCHAR
STARTCHAR C497
ENCODING 497
SWIDTH 822 0
DWIDTH 24 0
BBX 25 20 4 -2
BITMAP
FFFFFF80
01E00000
0F100000
1C100000
32300000
61600000
41FC0000
47E20000
3D820000
2307E000
23C67000
23C4F000
4384F000
400CE000
40080000
40080000
30080000
3FF80000
0FF00000
00100000
ENDCHAR
STARTCHAR C498
ENCODING 498
SWIDTH 548 0
DWIDTH 16 0
BBX 17 27 4 -1
BITMAP
200000
100000
0C0000
03E000
001800
000400
000200
000200
FFFF80
03E000
1E1000
301000
643000
C26000
81C000
838000
8E0000
7C7000
30F000
60F000
C0E000
806000
804000
80C000
438000
7F0000
3C0000
ENDCHAR
STARTCHAR C499
ENCODING 499
SWIDTH 617 0
DWIDTH 18 0
BBX 19 27 4 1
BITMAP
001800
003000
002000
002000
006000
004000
004000
004000
004000
004000
FFFFE0
03E000
0E6000
187000
34C800
24C800
638400
438400
4F0400
3E0400
0C0C00
380800
601800
403000
406000
21C000
1F0000
ENDCHAR
STARTCHAR C500
ENCODING 500
SWIDTH 788 0
DWIDTH 23 0
BBX 21 18 4 0
BITMAP
FFF800
7008F0
080908
040A08
020C08
031810
069060
1C50E0
3030D0
E03010
E02810
182420
0423C0
024000
014000
014000
00C000
008000
ENDCHAR
STARTCHAR C501
ENCODING 501
SWIDTH 891 0
DWIDTH 26 0
BBX 27 18 4 0
BITMAP
FFC3E1E0
0E4E1100
18F80900
34F81900
65847600
4304C200
4E078200
380E0200
001C0400
00180400
00000400
00000400
00000800
00000800
00000800
00000800
00001000
00001000
ENDCHAR
STARTCHAR C502
ENCODING 502
SWIDTH 822 0
DWIDTH 24 0
BBX 25 18 4 0
BITMAP
FFFFFF80
07C00000
1C200000
38206000
6460F000
42C09800
41A08800
47208800
3C618800
00C13000
01817000
03016000
03830000
00620000
00120000
000A0000
00060000
00040000
ENDCHAR
STARTCHAR C503
ENCODING 503
SWIDTH 582 0
DWIDTH 17 0
BBX 18 19 4 -1
BITMAP
FFFFC0
03C200
0E2200
1C2200
346400
62C400
418400
470400
3D0800
010800
0F0800
1F8800
1ED000
1C5000
003000
003000
002000
002000
002000
ENDCHAR
STARTCHAR C504
ENCODING 504
SWIDTH 754 0
DWIDTH 22 0
BBX 23 18 4 0
BITMAP
FFFFFE
018180
03C180
02C180
06E100
6C7300
783E00
000F80
003AC0
00E440
038440
070440
0185C0
00CBC0
006B80
002800
003800
001000
ENDCHAR
STARTCHAR C505
ENCODING 505
SWIDTH 822 0
DWIDTH 24 0
BBX 25 20 4 -2
BITMAP
FFFFFF80
01C38000
01C18000
01C18000
03E10000
66730000
7C3E0000
00E20000
01820000
0307E000
23C67000
23C4F000
43C4F000
438CE000
40080000
40080000
30080000
3FF80000
0FF00000
00100000
ENDCHAR
STARTCHAR C506
ENCODING 506
SWIDTH 754 0
DWIDTH 22 0
BBX 23 22 4 -4
BITMAP
FFFFFE
018180
03C180
02C180
06E100
6C7300
783E00
000600
003F80
00E4C0
038440
0305C0
01C7C0
006B80
003800
3EF800
411800
B11000
F01000
F01000
601000
002000
ENDCHAR
STARTCHAR C507
ENCODING 507
SWIDTH 788 0
DWIDTH 23 0
BBX 24 18 4 0
BITMAP
FFFC0F
030C08
070C08
078C08
058810
6DD810
78F810
000C10
00D220
01D220
01E220
01C420
001840
006040
003040
000C40
000280
000180
ENDCHAR
STARTCHAR C508
ENCODING 508
SWIDTH 822 0
DWIDTH 24 0
BBX 25 26 4 0
BITMAP
00800000
00400000
00300000
000FC000
00003800
00000400
00000200
00000200
FFFFFF80
1C0C0000
040C0000
02080000
02080000
02180000
03D83000
07307000
8C107000
98307000
70303000
00202000
00606000
0060C000
00418000
00470000
007E0000
00380000
ENDCHAR
STARTCHAR C509
ENCODING 509
SWIDTH 685 0
DWIDTH 20 0
BBX 21 19 4 -1
BITMAP
FFFFF8
0060E0
00E060
01E060
016060
037040
7638C0
7C3F80
407E00
207900
207100
200100
100100
100100
080200
0C0600
061C00
03F800
01E000
ENDCHAR
STARTCHAR C510
ENCODING 510
SWIDTH 582 0
DWIDTH 17 0
BBX 18 21 4 -3
BITMAP
FFFFC0
030E00
070600
078600
0D8400
D9CC00
F0F800
01F000
07F800
4E0800
5C1800
5C3000
59F000
43C000
43E000
402000
402000
406000
21C000
3F8000
1E0000
ENDCHAR
STARTCHAR C511
ENCODING 511
SWIDTH 651 0
DWIDTH 19 0
BBX 21 20 3 -2
BITMAP
7FFFF8
00E0C0
00E0C0
00E0C0
01F080
333980
3E1F00
007100
00C100
018100
21C300
43C200
C1C200
818200
800600
800400
400400
7FFC00
3FFC00
000400
ENDCHAR
ENDFONT
